<?xml version="1.0" encoding="UTF-8"?>
<!DOCTYPE svg PUBLIC "-//W3C//DTD SVG 1.1//EN" "http://www.w3.org/Graphics/SVG/1.1/DTD/svg11.dtd">
<!-- Creator: CorelDRAW X7 -->
<svg xmlns="http://www.w3.org/2000/svg" xml:space="preserve" width="160.658mm" height="102.265mm" version="1.1" style="shape-rendering:geometricPrecision; text-rendering:geometricPrecision; image-rendering:optimizeQuality; fill-rule:evenodd; clip-rule:evenodd"
viewBox="0 0 16066 10227"
 xmlns:xlink="http://www.w3.org/1999/xlink">
 <defs>
  <style type="text/css">
   <![CDATA[
    .fil2 {fill:none}
    .fil0 {fill:black}
    .fil1 {fill:#FDFDFD}
   ]]>
  </style>
   <clipPath id="id0">
    <path d="M8033 0c4436,0 8033,2289 8033,5113 0,2824 -3597,5114 -8033,5114 -4437,0 -8033,-2290 -8033,-5114 0,-2824 3596,-5113 8033,-5113z"/>
   </clipPath>
 </defs>
 <g id="Layer_x0020_1">
  <metadata id="CorelCorpID_0Corel-Layer"/>
  <path class="fil0" d="M8033 0c4436,0 8033,2289 8033,5113 0,2824 -3597,5114 -8033,5114 -4437,0 -8033,-2290 -8033,-5114 0,-2824 3596,-5113 8033,-5113z"/>
  <g style="clip-path:url(#id0)">
   <g id="_1857251143440">
    <path id="1" class="fil1" d="M9222 5032l1 483c1,905 -112,2137 -260,3043 -95,587 -160,549 626,451 643,-81 591,-32 626,-706 33,-648 47,-1283 50,-1933 2,-301 -42,-517 183,-446 473,148 554,1012 554,1445 0,304 -27,598 -64,894 -11,85 -67,349 -35,409 62,118 261,25 363,-5 173,-51 587,-167 712,-243 113,-69 131,-168 146,-333 86,-926 -60,-2244 -797,-2848 -20,-16 -37,-33 -60,-50 -132,-101 20,-63 299,-450 361,-502 457,-1168 456,-1805 0,-268 -32,-785 -111,-1010 -54,-156 -159,-178 -327,-233 -146,-47 -279,-90 -425,-134 -73,-22 -140,-39 -214,-60 -66,-19 -181,-68 -215,5 -30,66 69,376 89,461 143,586 229,1657 -149,2144 -27,35 -314,371 -391,206 -25,-54 -30,-561 -35,-667 -25,-435 -57,-866 -95,-1297 -19,-211 -39,-420 -66,-629 -65,-512 -145,-453 -857,-536 -101,-12 -207,-23 -310,-30 -328,-22 -127,293 -32,725 224,1030 337,2068 338,3149z"/>
    <path class="fil1" d="M7229 1158c-214,21 -424,42 -637,69 -261,33 -327,70 -378,326 -214,1092 -307,2820 -284,3919 25,1209 116,2046 321,3191 47,266 124,325 350,350 444,48 878,66 1328,86 254,12 434,18 482,-216 38,-182 51,-444 69,-635 18,-201 70,-798 46,-994 -31,-251 -239,27 -773,72 -216,18 -453,23 -547,-134 -118,-197 -162,-953 -175,-1238 -41,-891 -17,-1798 95,-2668 53,-408 116,-810 201,-1201 43,-199 85,-375 137,-567 20,-73 68,-221 51,-302 -23,-104 -181,-69 -286,-58z"/>
    <path class="fil1" d="M3085 2322c-299,41 -502,154 -730,317 -155,111 -425,369 -538,505l-309 393c-147,202 -395,655 -414,980 -28,486 237,725 487,919 279,217 613,307 759,633 38,86 48,218 0,295 -163,258 -779,-124 -953,-273 -19,-16 -200,-178 -212,-49 -5,63 162,441 193,506 145,303 322,621 580,823 252,197 481,408 859,534 499,166 680,-136 729,-575 68,-621 -61,-1454 -428,-1985 -333,-482 -792,-559 -910,-834 -139,-326 213,-733 673,-670 240,33 347,260 417,-16 40,-162 51,-448 75,-626 29,-211 64,-398 100,-605 22,-124 44,-214 -70,-254 -100,-35 -202,-33 -308,-18z"/>
    <path class="fil1" d="M14841 4443c38,-151 -257,-849 -329,-992 -79,-155 -189,-277 -293,-377 -1883,-1816 -1628,1029 -1328,1789 64,161 159,299 251,418 107,139 197,215 347,322 120,87 312,184 389,280 262,325 -237,840 -799,657 -72,-24 -191,-111 -236,-107 -141,11 -135,381 -150,526 -21,198 -46,396 -74,593 -13,88 -37,200 -42,288 -19,323 601,100 728,47 689,-288 1907,-1510 1633,-2307 -180,-523 -811,-678 -1018,-990 -211,-319 -90,-852 708,-258 64,47 127,126 213,111z"/>
    <path class="fil1" d="M5424 1437c-307,84 -614,155 -906,262 -143,52 -198,176 -232,349 -140,725 -229,1954 -248,2688 -20,757 30,1501 107,2238 22,218 157,1325 260,1494 65,105 269,144 409,184 150,44 301,87 457,124 484,114 278,37 55,-1129 -271,-1419 -309,-2909 -122,-4341 65,-498 156,-997 274,-1481 25,-101 157,-447 -54,-388z"/>
   </g>
  </g>
  <path class="fil2" d="M8033 0c4436,0 8033,2289 8033,5113 0,2824 -3597,5114 -8033,5114 -4437,0 -8033,-2290 -8033,-5114 0,-2824 3596,-5113 8033,-5113z"/>
 </g>
</svg>
